<svg viewBox="0 0 96 96" xmlns="http://www.w3.org/2000/svg" xmlns:xlink="http://www.w3.org/1999/xlink" id="Icons_Users" overflow="hidden"><g><circle cx="24" cy="30.8" r="9"/><circle cx="72" cy="30.8" r="9"/><path d="M66 74.2 66 65.2C66 63.8 65.4 62.4 64.2 61.6 61.8 59.6 58.6 58.2 55.4 57.4 53.2 56.8 50.6 56.2 48 56.2 45.6 56.2 43 56.6 40.6 57.4 37.4 58.2 34.4 59.8 31.8 61.6 30.6 62.6 30 63.8 30 65.2L30 74.2 66 74.2Z"/><circle cx="48" cy="44.8" r="9"/><path d="M88.2 47.6C85.8 45.6 82.6 44.2 79.4 43.4 77.2 42.8 74.6 42.2 72 42.2 69.6 42.2 67 42.6 64.6 43.4 63.4 43.8 62.2 44.2 61 44.8L61 45C61 48.4 59.6 51.6 57.4 53.8 61.2 55 64.2 56.6 66.6 58.4 67.2 59 67.8 59.4 68.2 60.2L90 60.2 90 51.2C90 49.8 89.4 48.4 88.2 47.6Z"/><path d="M29.4 58.4 29.4 58.4C32.2 56.4 35.4 54.8 38.6 53.8 36.4 51.4 35 48.4 35 45 35 44.8 35 44.8 35 44.6 33.8 44.2 32.6 43.6 31.4 43.4 29.2 42.8 26.6 42.2 24 42.2 21.6 42.2 19 42.6 16.6 43.4 13.4 44.4 10.4 45.8 7.8 47.6 6.6 48.4 6 49.8 6 51.2L6 60.2 27.6 60.2C28.2 59.4 28.6 59 29.4 58.4Z"/></g></svg>