<svg viewBox="0 0 96 96" xmlns="http://www.w3.org/2000/svg" xmlns:xlink="http://www.w3.org/1999/xlink" id="Icons_WirelessRouter" overflow="hidden"><style>
.MsftOfcThm_Text1_Fill {
 
}
</style>
<g><path d="M39.5 42.4 42.3 39.6C40.9 38.1 40 36.1 40 33.9 40 31.7 40.9 29.7 42.3 28.2L39.5 25.4C37.3 27.6 36 30.6 36 33.9 36 37.2 37.3 40.2 39.5 42.4Z"/><path d="M33.9 48 36.7 45.2C33.8 42.3 32 38.3 32 33.9 32 29.5 33.8 25.5 36.7 22.6L33.9 19.8C30.2 23.4 28 28.4 28 33.9 28 39.4 30.2 44.4 33.9 48Z"/><path d="M31 50.9C26.7 46.6 24 40.6 24 33.9 24 27.2 26.7 21.3 31 16.9L28.2 14.1C23.1 19.2 20 26.2 20 33.9 20 41.6 23.1 48.6 28.2 53.7L31 50.9Z"/><path d="M56.5 42.4C58.7 40.2 60 37.2 60 33.9 60 30.6 58.7 27.6 56.5 25.4L53.7 28.2C55.1 29.6 56 31.6 56 33.9 56 36.2 55.1 38.1 53.7 39.6L56.5 42.4Z"/><path d="M59.3 45.2 62.1 48C65.8 44.4 68 39.4 68 33.9 68 28.4 65.8 23.4 62.1 19.8L59.3 22.6C62.2 25.5 64 29.5 64 33.9 64 38.3 62.2 42.3 59.3 45.2Z"/><path d="M65 50.9 67.8 53.7C72.9 48.6 76 41.6 76 33.9 76 26.2 72.9 19.2 67.8 14.1L65 16.9C69.3 21.2 72 27.2 72 33.9 72 40.6 69.3 46.5 65 50.9Z"/><path d="M74 73.9C72.9 73.9 72 73 72 71.9 72 70.8 72.9 69.9 74 69.9 75.1 69.9 76 70.8 76 71.9 76 73 75.1 73.9 74 73.9ZM64 73.9C62.9 73.9 62 73 62 71.9 62 70.8 62.9 69.9 64 69.9 65.1 69.9 66 70.8 66 71.9 66 73 65.1 73.9 64 73.9ZM54 73.9C52.9 73.9 52 73 52 71.9 52 70.8 52.9 69.9 54 69.9 55.1 69.9 56 70.8 56 71.9 56 73 55.1 73.9 54 73.9ZM44 73.9C42.9 73.9 42 73 42 71.9 42 70.8 42.9 69.9 44 69.9 45.1 69.9 46 70.8 46 71.9 46 73 45.1 73.9 44 73.9ZM24 75.9C21.8 75.9 20 74.1 20 71.9 20 69.7 21.8 67.9 24 67.9 26.2 67.9 28 69.7 28 71.9 28 74.1 26.2 75.9 24 75.9ZM78 61.9 50 61.9 50 37.3C51.2 36.6 52 35.3 52 33.9 52 31.7 50.2 29.9 48 29.9 45.8 29.9 44 31.7 44 33.9 44 35.4 44.8 36.7 46 37.3L46 61.9 18 61.9C15.8 61.9 14 63.7 14 65.9L14 77.9C14 80.1 15.8 81.9 18 81.9L78 81.9C80.2 81.9 82 80.1 82 77.9L82 65.9C82 63.7 80.2 61.9 78 61.9Z"/></g></svg>